<svg width="20" height="20" viewBox="0 0 20 20" fill="none" xmlns="http://www.w3.org/2000/svg">
  <!-- Main flyer shape -->
  <path d="M3 2C2.44772 2 2 2.44772 2 3V17C2 17.5523 2.44772 18 3 18H17C17.5523 18 18 17.5523 18 17V3C18 2.44772 17.5523 2 17 2H3Z" fill="#ffffff" stroke="#ffffff" stroke-width="1"/>
  
  <!-- Content lines representing text -->
  <rect x="4" y="5" width="10" height="1.5" rx="0.75" fill="#667eea" opacity="0.9"/>
  <rect x="4" y="8" width="7" height="1.5" rx="0.75" fill="#667eea" opacity="0.7"/>
  <rect x="4" y="11" width="9" height="1.5" rx="0.75" fill="#667eea" opacity="0.8"/>
  <rect x="4" y="14" width="5" height="1.5" rx="0.75" fill="#667eea" opacity="0.6"/>
  
  <!-- Decorative elements -->
  <circle cx="15" cy="6" r="1.5" fill="#667eea" opacity="0.8"/>
  <path d="M13 13L15 15L17 13" stroke="#667eea" stroke-width="1.5" stroke-linecap="round" stroke-linejoin="round"/>
  
  <!-- Sparkle effect -->
  <path d="M6 3L6.5 4.5L8 5L6.5 5.5L6 7L5.5 5.5L4 5L5.5 4.5L6 3Z" fill="#667eea" opacity="0.9"/>
</svg>
