<svg width="24" height="24" viewBox="0 0 24 24" fill="none" xmlns="http://www.w3.org/2000/svg">
  <!-- Background circle with gradient -->
  <defs>
    <linearGradient id="flyerGradient" x1="0%" y1="0%" x2="100%" y2="100%">
      <stop offset="0%" style="stop-color:#667eea;stop-opacity:1" />
      <stop offset="100%" style="stop-color:#764ba2;stop-opacity:1" />
    </linearGradient>
  </defs>
  
  <!-- Main flyer shape -->
  <path d="M4 2C2.89543 2 2 2.89543 2 4V20C2 21.1046 2.89543 22 4 22H20C21.1046 22 22 21.1046 22 20V4C22 2.89543 21.1046 2 20 2H4Z" fill="url(#flyerGradient)" stroke="#ffffff" stroke-width="1.5"/>
  
  <!-- Content lines representing text -->
  <rect x="6" y="6" width="12" height="2" rx="1" fill="#ffffff" opacity="0.9"/>
  <rect x="6" y="10" width="8" height="2" rx="1" fill="#ffffff" opacity="0.7"/>
  <rect x="6" y="14" width="10" height="2" rx="1" fill="#ffffff" opacity="0.8"/>
  <rect x="6" y="18" width="6" height="2" rx="1" fill="#ffffff" opacity="0.6"/>
  
  <!-- Decorative elements -->
  <circle cx="18" cy="8" r="2" fill="#ffffff" opacity="0.8"/>
  <path d="M16 16L18 18L20 16" stroke="#ffffff" stroke-width="1.5" stroke-linecap="round" stroke-linejoin="round"/>
  
  <!-- Sparkle effect -->
  <path d="M8 4L8.5 5.5L10 6L8.5 6.5L8 8L7.5 6.5L6 6L7.5 5.5L8 4Z" fill="#ffffff" opacity="0.9"/>
</svg>
