<svg width="24" height="24" viewBox="0 0 24 24" fill="none" xmlns="http://www.w3.org/2000/svg">
  <!-- Main sparkle -->
  <path d="M12 2L14 8L20 10L14 12L12 18L10 12L4 10L10 8L12 2Z" fill="#ffffff" stroke="#667eea" stroke-width="0.5"/>
  
  <!-- Small sparkles -->
  <path d="M6 4L7 6L9 7L7 8L6 10L5 8L3 7L5 6L6 4Z" fill="#ffffff" opacity="0.8"/>
  <path d="M18 4L19 6L21 7L19 8L18 10L17 8L15 7L17 6L18 4Z" fill="#ffffff" opacity="0.8"/>
  <path d="M12 16L13 18L15 19L13 20L12 22L11 20L9 19L11 18L12 16Z" fill="#ffffff" opacity="0.6"/>
</svg>
